<svg height="512pt" viewBox="0 -46 512 511" width="512pt" xmlns="http://www.w3.org/2000/svg"><path d="m422.1875 215.003906v-140.054687c0-5.558594-4.507812-10.066407-10.066406-10.066407h-89.566406c-5.558594 0-10.0625 4.507813-10.0625 10.066407v45.507812h-116.882813v-109.890625c0-3.933594-2.292969-7.507812-5.867187-9.148437-3.578126-1.640625-7.78125-1.046875-10.761719 1.515625l-91.121094 78.371094c-2.226563 1.914062-3.503906 4.699218-3.503906 7.632812v20.144531c0 5.558594 4.507812 10.066407 10.066406 10.066407s10.066406-4.507813 10.066406-10.066407v-15.523437l70.988281-61.054688v32.382813l-31.773437 25.644531c-4.324219 3.492188-5.003906 9.828125-1.511719 14.15625 1.992188 2.464844 4.902344 3.742188 7.839844 3.742188 2.21875 0 4.453125-.730469 6.316406-2.230469l19.128906-15.441407v19.957032l-31.773437 25.644531c-4.324219 3.492187-5.003906 9.832031-1.511719 14.15625 1.992188 2.464844 4.902344 3.746094 7.839844 3.746094 2.21875 0 4.453125-.730469 6.316406-2.234375l19.128906-15.441406v19.960937l-31.773437 25.644531c-4.324219 3.492188-5.003906 9.828125-1.511719 14.15625 1.992188 2.464844 4.902344 3.742188 7.839844 3.742188 2.21875 0 4.453125-.730469 6.316406-2.230469l19.128906-15.441406v19.957031l-31.773437 25.644531c-4.324219 3.492188-5.003906 9.832031-1.511719 14.15625 1.992188 2.464844 4.902344 3.746094 7.839844 3.746094 2.21875 0 4.453125-.730469 6.316406-2.234375l19.128906-15.441406v19.960937l-31.773437 25.644531c-4.324219 3.492188-5.003906 9.828126-1.511719 14.15625 1.992188 2.464844 4.902344 3.746094 7.839844 3.746094 2.21875 0 4.453125-.730468 6.316406-2.234375l19.128906-15.441406v19.957031l-31.773437 25.644532c-4.324219 3.492187-5.003906 9.832031-1.511719 14.15625 1.992188 2.464843 4.902344 3.746093 7.839844 3.746093 2.21875 0 4.453125-.730469 6.316406-2.234375l19.128906-15.4375v19.957032l-31.773437 25.644531c-4.324219 3.492187-5.003906 9.828125-1.511719 14.15625 1.992188 2.464843 4.902344 3.746093 7.839844 3.746093 2.21875 0 4.453125-.734374 6.316406-2.234374l19.128906-15.441407v33.9375h-70.988281v-210.398437c0-5.558594-4.507812-10.066406-10.066406-10.066406s-10.066406 4.507812-10.066406 10.066406v30.523437c-53.664063 48.527344-84.355469 117.507813-84.355469 189.933594 0 5.5625 4.507812 10.066406 10.066406 10.066406h491.867188c5.558594 0 10.066406-4.503906 10.066406-10.066406 0-75.222656-32.675781-145.941406-89.8125-194.730469zm-337.832031 32.960938v151.703125h-64.007813c2.421875-56.722657 25.238282-110.550781 64.007813-151.703125zm248.269531 151.703125v-96.683594c0-5.5625-4.507812-10.066406-10.066406-10.066406s-10.066406 4.503906-10.066406 10.066406v96.640625h-116.882813v-259.035156h116.882813v83.324218c0 5.558594 4.503906 10.066407 10.0625 10.066407 5.558593 0 10.066406-4.507813 10.066406-10.066407v-138.898437h69.433594v25.523437h-22.992188c-5.558594 0-10.066406 4.503907-10.066406 10.066407 0 5.558593 4.507812 10.066406 10.066406 10.066406h22.992188v20.71875h-22.992188c-5.558594 0-10.066406 4.503906-10.066406 10.066406 0 5.558594 4.507812 10.066407 10.066406 10.066407h22.992188v20.71875h-22.992188c-5.558594 0-10.066406 4.507812-10.066406 10.066406s4.507812 10.066406 10.066406 10.066406h22.992188v20.71875h-22.992188c-5.558594 0-10.066406 4.503906-10.066406 10.066406 0 5.558594 4.507812 10.066406 10.066406 10.066406h22.992188v20.71875h-22.992188c-5.558594 0-10.066406 4.507813-10.066406 10.066407 0 5.558593 4.507812 10.066406 10.066406 10.066406h22.992188v20.71875h-22.992188c-5.558594 0-10.066406 4.507813-10.066406 10.066406 0 5.558594 4.507812 10.066407 10.066406 10.066407h22.992188v20.71875h-22.992188c-5.558594 0-10.066406 4.507812-10.066406 10.066406s4.507812 10.066406 10.066406 10.066406h22.992188v23.890625h-69.429688zm89.5625 0v-157.320313c42.160156 41.808594 66.953125 97.71875 69.46875 157.320313zm0 0"/><path d="m232.453125 159.886719h-12.015625c-5.558594 0-10.066406 4.507812-10.066406 10.066406s4.507812 10.066406 10.066406 10.066406h12.015625c5.558594 0 10.066406-4.507812 10.066406-10.066406s-4.507812-10.066406-10.066406-10.066406zm0 0"/><path d="m287.082031 159.886719h-12.015625c-5.558594 0-10.066406 4.507812-10.066406 10.066406s4.507812 10.066406 10.066406 10.066406h12.015625c5.558594 0 10.066407-4.507812 10.066407-10.066406s-4.507813-10.066406-10.066407-10.066406zm0 0"/><path d="m232.453125 193.273438h-12.015625c-5.558594 0-10.066406 4.503906-10.066406 10.066406 0 5.558594 4.507812 10.066406 10.066406 10.066406h12.015625c5.558594 0 10.066406-4.507812 10.066406-10.066406 0-5.5625-4.507812-10.066406-10.066406-10.066406zm0 0"/><path d="m287.082031 193.273438h-12.015625c-5.558594 0-10.066406 4.503906-10.066406 10.066406 0 5.558594 4.507812 10.066406 10.066406 10.066406h12.015625c5.558594 0 10.066407-4.507812 10.066407-10.066406 0-5.5625-4.507813-10.066406-10.066407-10.066406zm0 0"/><path d="m232.453125 226.65625h-12.015625c-5.558594 0-10.066406 4.507812-10.066406 10.066406 0 5.5625 4.507812 10.066406 10.066406 10.066406h12.015625c5.558594 0 10.066406-4.503906 10.066406-10.066406 0-5.558594-4.507812-10.066406-10.066406-10.066406zm0 0"/><path d="m287.082031 226.65625h-12.015625c-5.558594 0-10.066406 4.507812-10.066406 10.066406 0 5.5625 4.507812 10.066406 10.066406 10.066406h12.015625c5.558594 0 10.066407-4.503906 10.066407-10.066406 0-5.558594-4.507813-10.066406-10.066407-10.066406zm0 0"/><path d="m232.453125 260.042969h-12.015625c-5.558594 0-10.066406 4.503906-10.066406 10.066406 0 5.558594 4.507812 10.066406 10.066406 10.066406h12.015625c5.558594 0 10.066406-4.507812 10.066406-10.066406 0-5.5625-4.507812-10.066406-10.066406-10.066406zm0 0"/><path d="m287.082031 260.042969h-12.015625c-5.558594 0-10.066406 4.503906-10.066406 10.066406 0 5.558594 4.507812 10.066406 10.066406 10.066406h12.015625c5.558594 0 10.066407-4.507812 10.066407-10.066406 0-5.5625-4.507813-10.066406-10.066407-10.066406zm0 0"/><path d="m232.453125 293.425781h-12.015625c-5.558594 0-10.066406 4.507813-10.066406 10.066407 0 5.558593 4.507812 10.066406 10.066406 10.066406h12.015625c5.558594 0 10.066406-4.507813 10.066406-10.066406 0-5.558594-4.507812-10.066407-10.066406-10.066407zm0 0"/><path d="m287.082031 293.425781h-12.015625c-5.558594 0-10.066406 4.507813-10.066406 10.066407 0 5.558593 4.507812 10.066406 10.066406 10.066406h12.015625c5.558594 0 10.066407-4.507813 10.066407-10.066406 0-5.558594-4.507813-10.066407-10.066407-10.066407zm0 0"/><path d="m232.453125 326.808594h-12.015625c-5.558594 0-10.066406 4.507812-10.066406 10.066406 0 5.5625 4.507812 10.066406 10.066406 10.066406h12.015625c5.558594 0 10.066406-4.503906 10.066406-10.066406 0-5.558594-4.507812-10.066406-10.066406-10.066406zm0 0"/><path d="m287.082031 326.808594h-12.015625c-5.558594 0-10.066406 4.507812-10.066406 10.066406 0 5.5625 4.507812 10.066406 10.066406 10.066406h12.015625c5.558594 0 10.066407-4.503906 10.066407-10.066406 0-5.558594-4.507813-10.066406-10.066407-10.066406zm0 0"/><path d="m232.453125 360.195312h-12.015625c-5.558594 0-10.066406 4.507813-10.066406 10.066407 0 5.558593 4.507812 10.066406 10.066406 10.066406h12.015625c5.558594 0 10.066406-4.507813 10.066406-10.066406 0-5.558594-4.507812-10.066407-10.066406-10.066407zm0 0"/><path d="m287.082031 360.195312h-12.015625c-5.558594 0-10.066406 4.507813-10.066406 10.066407 0 5.558593 4.507812 10.066406 10.066406 10.066406h12.015625c5.558594 0 10.066407-4.507813 10.066407-10.066406 0-5.558594-4.507813-10.066407-10.066407-10.066407zm0 0"/><path d="m91.414062 159.425781.222657.066407c.964843.289062 1.9375.429687 2.898437.429687 4.328125 0 8.328125-2.816406 9.636719-7.171875 1.597656-5.324219-1.417969-10.9375-6.746094-12.539062l-.21875-.066407c-5.320312-1.597656-10.933593 1.421875-12.535156 6.746094s1.417969 10.9375 6.742187 12.535156zm0 0"/><path d="m324.398438 252.53125-.21875-.066406c-5.320313-1.597656-10.9375 1.421875-12.535157 6.742187-1.601562 5.324219 1.417969 10.9375 6.742188 12.539063l.222656.066406c.964844.289062 1.9375.425781 2.898437.425781 4.328126 0 8.328126-2.8125 9.636719-7.171875 1.597657-5.324218-1.417969-10.9375-6.746093-12.535156zm0 0"/></svg>